<svg width="576" height="576" viewBox="0 0 576 576" fill="none" xmlns="http://www.w3.org/2000/svg">
<mask id="mask0_1656_3352" style="mask-type:alpha" maskUnits="userSpaceOnUse" x="0" y="0" width="576" height="576">
<circle cx="288" cy="288" r="288" transform="matrix(-1 0 0 1 576 0)" fill="white"/>
</mask>
<g mask="url(#mask0_1656_3352)">
<g filter="url(#filter0_f_1656_3352)">
<path d="M-21.937 265.152C-23.5784 361.848 7.14962 445.183 31.5572 493.704C55.9649 542.225 100.399 589.379 222.438 657.719C344.476 726.058 574.834 679.853 689.145 544.217C749.351 472.78 819.619 392.242 820.954 288.003C822.657 154.993 777.495 -2.01026 676.58 -88.4303C550.588 -196.326 233.249 -81.379 117.038 13.7161C48.7248 69.6168 -20.2657 166.693 -21.937 265.152Z" fill="#D86146"/>
</g>
<g filter="url(#filter1_f_1656_3352)">
<path d="M872.878 50.781C930.893 -11.1304 993.513 -11.4158 1072.86 -3.12947C1092.92 -1.50338 1153.96 1.82213 1173.7 -21.5461C1211.94 -66.8095 1166.96 -183.343 1113.9 -216.283C1075.24 -240.281 1025.1 -252.111 980.823 -260.661C785.24 -298.423 537.136 -287.104 391.791 -130.626C264.822 6.06694 249.163 195.756 317.953 365.692C364.887 481.636 645.926 489.314 738.788 435.893C876.907 356.437 777.61 152.447 872.878 50.781Z" fill="#6CA3FF"/>
</g>
<g filter="url(#filter2_f_1656_3352)">
<path d="M589.651 486.947C556.422 359.553 265.009 335.454 158.832 362.563C-268.459 471.66 812.218 1199.98 589.651 486.947Z" fill="#8035D2"/>
</g>
</g>
<defs>
<filter id="filter0_f_1656_3352" x="-222" y="-332" width="1243" height="1221" filterUnits="userSpaceOnUse" color-interpolation-filters="sRGB">
<feFlood flood-opacity="0" result="BackgroundImageFix"/>
<feBlend mode="normal" in="SourceGraphic" in2="BackgroundImageFix" result="shape"/>
<feGaussianBlur stdDeviation="100" result="effect1_foregroundBlur_1656_3352"/>
</filter>
<filter id="filter1_f_1656_3352" x="77.5852" y="-478.802" width="1310.39" height="1146.54" filterUnits="userSpaceOnUse" color-interpolation-filters="sRGB">
<feFlood flood-opacity="0" result="BackgroundImageFix"/>
<feBlend mode="normal" in="SourceGraphic" in2="BackgroundImageFix" result="shape"/>
<feGaussianBlur stdDeviation="100" result="effect1_foregroundBlur_1656_3352"/>
</filter>
<filter id="filter2_f_1656_3352" x="-142.57" y="152.211" width="963.177" height="844.389" filterUnits="userSpaceOnUse" color-interpolation-filters="sRGB">
<feFlood flood-opacity="0" result="BackgroundImageFix"/>
<feBlend mode="normal" in="SourceGraphic" in2="BackgroundImageFix" result="shape"/>
<feGaussianBlur stdDeviation="100.2" result="effect1_foregroundBlur_1656_3352"/>
</filter>
</defs>
</svg>
